<mxfile host="app.diagrams.net" modified="2024-02-27T18:44:16.219Z" agent="Mozilla/5.0 (Windows NT 10.0; Win64; x64; rv:123.0) Gecko/20100101 Firefox/123.0" etag="i60dEKIRWi0Pu1F5oEMN" version="23.1.7" type="github">
  <diagram name="Page-1" id="d0UN07WXNYlbEXrQTTaO">
    <mxGraphModel dx="1970" dy="470" grid="1" gridSize="10" guides="1" tooltips="1" connect="1" arrows="1" fold="1" page="1" pageScale="1" pageWidth="850" pageHeight="1100" math="0" shadow="0">
      <root>
        <mxCell id="0" />
        <mxCell id="1" parent="0" />
        <mxCell id="yPpfAutAuJp1ENtTNpeM-3" value="" style="edgeStyle=orthogonalEdgeStyle;rounded=0;orthogonalLoop=1;jettySize=auto;html=1;endArrow=none;shape=link;" edge="1" parent="1" source="yPpfAutAuJp1ENtTNpeM-1" target="yPpfAutAuJp1ENtTNpeM-2">
          <mxGeometry relative="1" as="geometry" />
        </mxCell>
        <mxCell id="yPpfAutAuJp1ENtTNpeM-1" value="Relationship" style="shape=rhombus;perimeter=rhombusPerimeter;whiteSpace=wrap;html=1;align=center;" vertex="1" parent="1">
          <mxGeometry x="410" y="130" width="120" height="60" as="geometry" />
        </mxCell>
        <mxCell id="yPpfAutAuJp1ENtTNpeM-27" style="edgeStyle=orthogonalEdgeStyle;rounded=0;orthogonalLoop=1;jettySize=auto;html=1;exitX=0.5;exitY=0;exitDx=0;exitDy=0;entryX=0.5;entryY=1;entryDx=0;entryDy=0;endArrow=none;" edge="1" parent="1" source="yPpfAutAuJp1ENtTNpeM-2" target="yPpfAutAuJp1ENtTNpeM-11">
          <mxGeometry relative="1" as="geometry" />
        </mxCell>
        <mxCell id="yPpfAutAuJp1ENtTNpeM-28" style="edgeStyle=orthogonalEdgeStyle;rounded=0;orthogonalLoop=1;jettySize=auto;html=1;exitX=0.25;exitY=0;exitDx=0;exitDy=0;entryX=1;entryY=0.5;entryDx=0;entryDy=0;endArrow=none;" edge="1" parent="1" source="yPpfAutAuJp1ENtTNpeM-2" target="yPpfAutAuJp1ENtTNpeM-10">
          <mxGeometry relative="1" as="geometry" />
        </mxCell>
        <mxCell id="yPpfAutAuJp1ENtTNpeM-29" style="edgeStyle=orthogonalEdgeStyle;rounded=0;orthogonalLoop=1;jettySize=auto;html=1;exitX=1;exitY=0;exitDx=0;exitDy=0;entryX=0;entryY=0.5;entryDx=0;entryDy=0;endArrow=none;" edge="1" parent="1" source="yPpfAutAuJp1ENtTNpeM-2" target="yPpfAutAuJp1ENtTNpeM-25">
          <mxGeometry relative="1" as="geometry" />
        </mxCell>
        <mxCell id="yPpfAutAuJp1ENtTNpeM-30" style="edgeStyle=orthogonalEdgeStyle;rounded=0;orthogonalLoop=1;jettySize=auto;html=1;exitX=1;exitY=1;exitDx=0;exitDy=0;entryX=0.5;entryY=0;entryDx=0;entryDy=0;endArrow=none;" edge="1" parent="1" source="yPpfAutAuJp1ENtTNpeM-2" target="yPpfAutAuJp1ENtTNpeM-26">
          <mxGeometry relative="1" as="geometry" />
        </mxCell>
        <mxCell id="yPpfAutAuJp1ENtTNpeM-31" style="edgeStyle=orthogonalEdgeStyle;rounded=0;orthogonalLoop=1;jettySize=auto;html=1;exitX=0.5;exitY=1;exitDx=0;exitDy=0;endArrow=none;" edge="1" parent="1" source="yPpfAutAuJp1ENtTNpeM-2" target="yPpfAutAuJp1ENtTNpeM-24">
          <mxGeometry relative="1" as="geometry" />
        </mxCell>
        <mxCell id="yPpfAutAuJp1ENtTNpeM-33" style="edgeStyle=orthogonalEdgeStyle;rounded=0;orthogonalLoop=1;jettySize=auto;html=1;exitX=0;exitY=0.5;exitDx=0;exitDy=0;endArrow=none;" edge="1" parent="1" source="yPpfAutAuJp1ENtTNpeM-2" target="yPpfAutAuJp1ENtTNpeM-9">
          <mxGeometry relative="1" as="geometry" />
        </mxCell>
        <mxCell id="yPpfAutAuJp1ENtTNpeM-2" value="penyewaan" style="whiteSpace=wrap;html=1;align=center;" vertex="1" parent="1">
          <mxGeometry y="140" width="100" height="40" as="geometry" />
        </mxCell>
        <mxCell id="yPpfAutAuJp1ENtTNpeM-8" value="" style="edgeStyle=orthogonalEdgeStyle;rounded=0;orthogonalLoop=1;jettySize=auto;html=1;endArrow=none;shape=link;" edge="1" parent="1" source="yPpfAutAuJp1ENtTNpeM-4" target="yPpfAutAuJp1ENtTNpeM-1">
          <mxGeometry relative="1" as="geometry" />
        </mxCell>
        <mxCell id="yPpfAutAuJp1ENtTNpeM-34" style="edgeStyle=orthogonalEdgeStyle;rounded=0;orthogonalLoop=1;jettySize=auto;html=1;exitX=0.5;exitY=1;exitDx=0;exitDy=0;entryX=0;entryY=0.5;entryDx=0;entryDy=0;endArrow=none;" edge="1" parent="1" source="yPpfAutAuJp1ENtTNpeM-4" target="yPpfAutAuJp1ENtTNpeM-16">
          <mxGeometry relative="1" as="geometry" />
        </mxCell>
        <mxCell id="yPpfAutAuJp1ENtTNpeM-35" style="edgeStyle=orthogonalEdgeStyle;rounded=0;orthogonalLoop=1;jettySize=auto;html=1;exitX=1;exitY=0.5;exitDx=0;exitDy=0;entryX=0.5;entryY=1;entryDx=0;entryDy=0;endArrow=none;" edge="1" parent="1" source="yPpfAutAuJp1ENtTNpeM-4" target="yPpfAutAuJp1ENtTNpeM-15">
          <mxGeometry relative="1" as="geometry" />
        </mxCell>
        <mxCell id="yPpfAutAuJp1ENtTNpeM-36" style="edgeStyle=orthogonalEdgeStyle;rounded=0;orthogonalLoop=1;jettySize=auto;html=1;exitX=0.5;exitY=0;exitDx=0;exitDy=0;entryX=0.5;entryY=1;entryDx=0;entryDy=0;endArrow=none;" edge="1" parent="1" source="yPpfAutAuJp1ENtTNpeM-4" target="yPpfAutAuJp1ENtTNpeM-23">
          <mxGeometry relative="1" as="geometry" />
        </mxCell>
        <mxCell id="yPpfAutAuJp1ENtTNpeM-4" value="barang" style="whiteSpace=wrap;html=1;align=center;" vertex="1" parent="1">
          <mxGeometry x="630" y="140" width="100" height="40" as="geometry" />
        </mxCell>
        <mxCell id="yPpfAutAuJp1ENtTNpeM-13" value="" style="edgeStyle=orthogonalEdgeStyle;rounded=0;orthogonalLoop=1;jettySize=auto;html=1;endArrow=none;" edge="1" parent="1" source="yPpfAutAuJp1ENtTNpeM-5" target="yPpfAutAuJp1ENtTNpeM-1">
          <mxGeometry relative="1" as="geometry" />
        </mxCell>
        <mxCell id="yPpfAutAuJp1ENtTNpeM-37" style="edgeStyle=orthogonalEdgeStyle;rounded=0;orthogonalLoop=1;jettySize=auto;html=1;exitX=0;exitY=0.5;exitDx=0;exitDy=0;entryX=0.5;entryY=0;entryDx=0;entryDy=0;endArrow=none;" edge="1" parent="1" source="yPpfAutAuJp1ENtTNpeM-5" target="yPpfAutAuJp1ENtTNpeM-21">
          <mxGeometry relative="1" as="geometry" />
        </mxCell>
        <mxCell id="yPpfAutAuJp1ENtTNpeM-38" style="edgeStyle=orthogonalEdgeStyle;rounded=0;orthogonalLoop=1;jettySize=auto;html=1;exitX=0.25;exitY=1;exitDx=0;exitDy=0;endArrow=none;" edge="1" parent="1" source="yPpfAutAuJp1ENtTNpeM-5" target="yPpfAutAuJp1ENtTNpeM-18">
          <mxGeometry relative="1" as="geometry" />
        </mxCell>
        <mxCell id="yPpfAutAuJp1ENtTNpeM-40" style="edgeStyle=orthogonalEdgeStyle;rounded=0;orthogonalLoop=1;jettySize=auto;html=1;exitX=1;exitY=0.5;exitDx=0;exitDy=0;entryX=0.5;entryY=0;entryDx=0;entryDy=0;endArrow=none;" edge="1" parent="1" source="yPpfAutAuJp1ENtTNpeM-5" target="yPpfAutAuJp1ENtTNpeM-19">
          <mxGeometry relative="1" as="geometry" />
        </mxCell>
        <mxCell id="yPpfAutAuJp1ENtTNpeM-5" value="pelanggan" style="whiteSpace=wrap;html=1;align=center;" vertex="1" parent="1">
          <mxGeometry x="420" y="290" width="100" height="40" as="geometry" />
        </mxCell>
        <mxCell id="yPpfAutAuJp1ENtTNpeM-9" value="Tgl Kembali" style="ellipse;whiteSpace=wrap;html=1;align=center;" vertex="1" parent="1">
          <mxGeometry x="-130" y="140" width="100" height="40" as="geometry" />
        </mxCell>
        <mxCell id="yPpfAutAuJp1ENtTNpeM-10" value="Tgl SewaA" style="ellipse;whiteSpace=wrap;html=1;align=center;" vertex="1" parent="1">
          <mxGeometry x="-100" y="90" width="100" height="40" as="geometry" />
        </mxCell>
        <mxCell id="yPpfAutAuJp1ENtTNpeM-11" value="Kode Barang" style="shape=ellipse;margin=3;whiteSpace=wrap;html=1;align=center;perimeter=ellipsePerimeter;" vertex="1" parent="1">
          <mxGeometry x="10" y="70" width="100" height="40" as="geometry" />
        </mxCell>
        <mxCell id="yPpfAutAuJp1ENtTNpeM-12" value="Id sewa" style="ellipse;whiteSpace=wrap;html=1;align=center;fontStyle=4;" vertex="1" parent="1">
          <mxGeometry x="-110" y="220" width="100" height="40" as="geometry" />
        </mxCell>
        <mxCell id="yPpfAutAuJp1ENtTNpeM-15" value="Nama Barang" style="ellipse;whiteSpace=wrap;html=1;align=center;" vertex="1" parent="1">
          <mxGeometry x="760" y="90" width="100" height="40" as="geometry" />
        </mxCell>
        <mxCell id="yPpfAutAuJp1ENtTNpeM-16" value="Harga sewa/hari" style="ellipse;whiteSpace=wrap;html=1;align=center;" vertex="1" parent="1">
          <mxGeometry x="710" y="210" width="100" height="40" as="geometry" />
        </mxCell>
        <mxCell id="yPpfAutAuJp1ENtTNpeM-18" value="Alamat" style="ellipse;whiteSpace=wrap;html=1;align=center;" vertex="1" parent="1">
          <mxGeometry x="360" y="390" width="100" height="40" as="geometry" />
        </mxCell>
        <mxCell id="yPpfAutAuJp1ENtTNpeM-19" value="id Pelanggan" style="whiteSpace=wrap;html=1;align=center;shape=ellipse;perimeter=ellipsePerimeter;fontStyle=4;" vertex="1" parent="1">
          <mxGeometry x="550" y="320" width="100" height="40" as="geometry" />
        </mxCell>
        <mxCell id="yPpfAutAuJp1ENtTNpeM-20" value="Nama Pelanggan" style="ellipse;whiteSpace=wrap;html=1;align=center;" vertex="1" parent="1">
          <mxGeometry x="480" y="390" width="100" height="40" as="geometry" />
        </mxCell>
        <mxCell id="yPpfAutAuJp1ENtTNpeM-21" value="No Telp" style="ellipse;whiteSpace=wrap;html=1;align=center;" vertex="1" parent="1">
          <mxGeometry x="290" y="310" width="100" height="40" as="geometry" />
        </mxCell>
        <mxCell id="yPpfAutAuJp1ENtTNpeM-22" value="M" style="text;html=1;align=center;verticalAlign=middle;resizable=0;points=[];autosize=1;strokeColor=none;fillColor=none;" vertex="1" parent="1">
          <mxGeometry x="595" y="158" width="30" height="30" as="geometry" />
        </mxCell>
        <mxCell id="yPpfAutAuJp1ENtTNpeM-23" value="kode_barang" style="ellipse;whiteSpace=wrap;html=1;align=center;fontStyle=4;" vertex="1" parent="1">
          <mxGeometry x="630" y="70" width="100" height="40" as="geometry" />
        </mxCell>
        <mxCell id="yPpfAutAuJp1ENtTNpeM-24" value="Id Pelanggan" style="ellipse;whiteSpace=wrap;html=1;align=center;" vertex="1" parent="1">
          <mxGeometry y="250" width="100" height="40" as="geometry" />
        </mxCell>
        <mxCell id="yPpfAutAuJp1ENtTNpeM-25" value="Jumlah" style="ellipse;whiteSpace=wrap;html=1;align=center;" vertex="1" parent="1">
          <mxGeometry x="140" y="100" width="100" height="40" as="geometry" />
        </mxCell>
        <mxCell id="yPpfAutAuJp1ENtTNpeM-26" value="status" style="ellipse;whiteSpace=wrap;html=1;align=center;" vertex="1" parent="1">
          <mxGeometry x="120" y="230" width="100" height="40" as="geometry" />
        </mxCell>
        <mxCell id="yPpfAutAuJp1ENtTNpeM-32" style="edgeStyle=orthogonalEdgeStyle;rounded=0;orthogonalLoop=1;jettySize=auto;html=1;exitX=0;exitY=1;exitDx=0;exitDy=0;entryX=0.64;entryY=0.025;entryDx=0;entryDy=0;entryPerimeter=0;endArrow=none;" edge="1" parent="1" source="yPpfAutAuJp1ENtTNpeM-2" target="yPpfAutAuJp1ENtTNpeM-12">
          <mxGeometry relative="1" as="geometry" />
        </mxCell>
        <mxCell id="yPpfAutAuJp1ENtTNpeM-39" style="edgeStyle=orthogonalEdgeStyle;rounded=0;orthogonalLoop=1;jettySize=auto;html=1;exitX=0.75;exitY=1;exitDx=0;exitDy=0;entryX=0.41;entryY=0;entryDx=0;entryDy=0;entryPerimeter=0;endArrow=none;" edge="1" parent="1" source="yPpfAutAuJp1ENtTNpeM-5" target="yPpfAutAuJp1ENtTNpeM-20">
          <mxGeometry relative="1" as="geometry" />
        </mxCell>
      </root>
    </mxGraphModel>
  </diagram>
</mxfile>
